# xmcd
#
# Track frame offsets: 
#        183
#        20793
#        42368
#
# Disc length: 817 seconds
#
# Revision: 0
# Processed by: cddbd v1.5.2PL0 Copyright (c) Steve Scherf et al.
# Submitted via: ExactAudioCopyFreeDBPlugin 1.0
#
DISCID=21032f03
DTITLE=Jann Arden - Could I Be Your Girl
DYEAR=1995
DGENRE=Country
TTITLE0=Could I Be Your Girl (Remix)
TTITLE1=Could I Be Your Girl (Live Acoustic Version)
TTITLE2=Insensitive (Live Acoustic Version)
EXTD=
EXTT0=
EXTT1=
EXTT2=
PLAYORDER=
